<svg width="91" height="31" viewBox="0 0 91 31" fill="none" xmlns="http://www.w3.org/2000/svg">
<g clip-path="url(#clip0_513_58232)">
<path d="M38.4783 15.5467C38.4783 19.7547 35.1728 22.8555 31.1162 22.8555C27.0595 22.8555 23.754 19.7547 23.754 15.5467C23.754 11.3091 27.0595 8.23798 31.1162 8.23798C35.1728 8.23798 38.4783 11.3091 38.4783 15.5467ZM35.2555 15.5467C35.2555 12.9172 33.3397 11.118 31.1162 11.118C28.8926 11.118 26.9768 12.9172 26.9768 15.5467C26.9768 18.1499 28.8926 19.9755 31.1162 19.9755C33.3397 19.9755 35.2555 18.1466 35.2555 15.5467Z" fill="#EA4335"/>
<path d="M54.3606 15.5467C54.3606 19.7547 51.0551 22.8555 46.9985 22.8555C42.9419 22.8555 39.6364 19.7547 39.6364 15.5467C39.6364 11.3124 42.9419 8.23798 46.9985 8.23798C51.0551 8.23798 54.3606 11.3091 54.3606 15.5467ZM51.1378 15.5467C51.1378 12.9172 49.222 11.118 46.9985 11.118C44.775 11.118 42.8591 12.9172 42.8591 15.5467C42.8591 18.1499 44.775 19.9755 46.9985 19.9755C49.222 19.9755 51.1378 18.1466 51.1378 15.5467Z" fill="#FBBC05"/>
<path d="M69.5812 8.67953V21.801C69.5812 27.1985 66.3849 29.403 62.6062 29.403C59.0492 29.403 56.9084 27.0338 56.1011 25.0962L58.9069 23.933C59.4066 25.1226 60.6308 26.5263 62.6029 26.5263C65.0217 26.5263 66.5206 25.0402 66.5206 22.2426V21.1914H66.4081C65.6867 22.0778 64.297 22.8522 62.5433 22.8522C58.8739 22.8522 55.5121 19.669 55.5121 15.5731C55.5121 11.4475 58.8739 8.23798 62.5433 8.23798C64.2937 8.23798 65.6834 9.01235 66.4081 9.87239H66.5206V8.68283H69.5812V8.67953ZM66.7489 15.5731C66.7489 12.9995 65.025 11.118 62.8312 11.118C60.6077 11.118 58.7448 12.9995 58.7448 15.5731C58.7448 18.1203 60.6077 19.9755 62.8312 19.9755C65.025 19.9755 66.7489 18.1203 66.7489 15.5731Z" fill="#4285F4"/>
<path d="M74.6273 0.988556V22.4073H71.4839V0.988556H74.6273Z" fill="#34A853"/>
<path d="M86.8765 17.9522L89.378 19.613C88.5707 20.8026 86.6251 22.8522 83.2633 22.8522C79.0942 22.8522 75.9806 19.6426 75.9806 15.5434C75.9806 11.1971 79.1207 8.23468 82.9027 8.23468C86.7111 8.23468 88.574 11.2531 89.1828 12.8842L89.517 13.7146L79.7063 17.7611C80.4574 19.2274 81.6254 19.9755 83.2633 19.9755C84.9045 19.9755 86.0427 19.1714 86.8765 17.9522ZM79.1769 15.3226L85.735 12.6107C85.3743 11.6979 84.289 11.062 83.0118 11.062C81.374 11.062 79.0942 12.502 79.1769 15.3226V15.3226Z" fill="#EA4335"/>
<path d="M11.8556 13.6454V10.5446H22.3479C22.4505 11.085 22.5034 11.7243 22.5034 12.4163C22.5034 14.7427 21.8648 17.6194 19.8067 19.669C17.8049 21.745 15.2472 22.8522 11.8589 22.8522C5.57879 22.8522 0.297913 17.7578 0.297913 11.5035C0.297913 5.24925 5.57879 0.154877 11.8589 0.154877C15.3332 0.154877 17.8082 1.5125 19.6678 3.28202L17.4707 5.47003C16.1372 4.22444 14.3306 3.25565 11.8556 3.25565C7.2696 3.25565 3.68284 6.93639 3.68284 11.5035C3.68284 16.0707 7.2696 19.7514 11.8556 19.7514C14.8303 19.7514 16.5244 18.5618 17.6097 17.481C18.4898 16.6045 19.0689 15.3523 19.2972 13.6421L11.8556 13.6454V13.6454Z" fill="#4285F4"/>
</g>
<defs>
<clipPath id="clip0_513_58232">
<rect width="90" height="30.3158" fill="white" transform="translate(0.178711)"/>
</clipPath>
</defs>
</svg>
