<svg width="32" height="33" viewBox="0 0 32 33" fill="none" xmlns="http://www.w3.org/2000/svg">
<g clip-path="url(#clip0_513_58613)">
<path d="M15.9673 3.28259C20.2318 3.28259 20.7324 3.3016 22.418 3.37764C23.9768 3.44735 24.8195 3.70715 25.3835 3.92893C26.1312 4.22042 26.6635 4.56259 27.2211 5.12022C27.7788 5.67784 28.1273 6.21012 28.4124 6.95784C28.6279 7.5218 28.894 8.36457 28.9637 9.92339C29.0397 11.6089 29.0588 12.1095 29.0588 16.3741C29.0588 20.6386 29.0397 21.1392 28.9637 22.8248C28.894 24.3836 28.6342 25.2264 28.4124 25.7903C28.1209 26.538 27.7788 27.0703 27.2211 27.6279C26.6635 28.1856 26.1312 28.5341 25.3835 28.8192C24.8195 29.0347 23.9768 29.3008 22.418 29.3705C20.7324 29.4466 20.2318 29.4656 15.9673 29.4656C11.7027 29.4656 11.2021 29.4466 9.51658 29.3705C7.95777 29.3008 7.115 29.041 6.55104 28.8192C5.80331 28.5277 5.27104 28.1856 4.71341 27.6279C4.15579 27.0703 3.80727 26.538 3.52213 25.7903C3.30668 25.2264 3.04054 24.3836 2.97084 22.8248C2.8948 21.1392 2.87579 20.6386 2.87579 16.3741C2.87579 12.1095 2.8948 11.6089 2.97084 9.92339C3.04054 8.36457 3.30034 7.5218 3.52213 6.95784C3.81361 6.21012 4.15579 5.67784 4.71341 5.12022C5.27104 4.56259 5.80331 4.21408 6.55104 3.92893C7.115 3.71348 7.95777 3.44735 9.51658 3.37764C11.2021 3.29527 11.7027 3.28259 15.9673 3.28259ZM15.9673 0.405762C11.633 0.405762 11.0881 0.424772 9.38351 0.500811C7.68529 0.576851 6.52569 0.849326 5.51183 1.2422C4.45995 1.64774 3.57282 2.19903 2.68569 3.08616C1.79856 3.97329 1.25361 4.86675 0.84173 5.9123C0.448859 6.92616 0.176384 8.08576 0.100344 9.79032C0.0243047 11.4885 0.0052948 12.0335 0.0052948 16.3677C0.0052948 20.702 0.0243047 21.247 0.100344 22.9515C0.176384 24.6497 0.448859 25.8093 0.84173 26.8295C1.24727 27.8814 1.79856 28.7685 2.68569 29.6557C3.57282 30.5428 4.46628 31.0877 5.51183 31.4996C6.52569 31.8925 7.68529 32.165 9.38985 32.241C11.0944 32.3171 11.633 32.3361 15.9736 32.3361C20.3142 32.3361 20.8528 32.3171 22.5574 32.241C24.2556 32.165 25.4152 31.8925 26.4354 31.4996C27.4873 31.0941 28.3744 30.5428 29.2615 29.6557C30.1487 28.7685 30.6936 27.8751 31.1055 26.8295C31.4984 25.8157 31.7708 24.6561 31.8469 22.9515C31.9229 21.247 31.9419 20.7083 31.9419 16.3677C31.9419 12.0271 31.9229 11.4885 31.8469 9.78398C31.7708 8.08576 31.4984 6.92616 31.1055 5.90596C30.6999 4.85408 30.1487 3.96695 29.2615 3.07982C28.3744 2.19269 27.4809 1.64774 26.4354 1.23586C25.4215 0.842989 24.2619 0.570514 22.5574 0.494475C20.8465 0.424772 20.3015 0.405762 15.9673 0.405762Z" fill="#FF8EB0"/>
<path d="M15.9672 8.16826C11.4429 8.16826 7.76765 11.8372 7.76765 16.3679C7.76765 20.8986 11.4429 24.5675 15.9672 24.5675C20.4916 24.5675 24.1669 20.8922 24.1669 16.3679C24.1669 11.8435 20.4916 8.16826 15.9672 8.16826ZM15.9672 21.6906C13.0271 21.6906 10.6445 19.3081 10.6445 16.3679C10.6445 13.4277 13.0271 11.0451 15.9672 11.0451C18.9074 11.0451 21.29 13.4277 21.29 16.3679C21.29 19.3081 18.9074 21.6906 15.9672 21.6906Z" fill="#FF8EB0"/>
<path d="M24.49 9.75887C25.5469 9.75887 26.4037 8.90209 26.4037 7.84521C26.4037 6.78832 25.5469 5.93154 24.49 5.93154C23.4332 5.93154 22.5764 6.78832 22.5764 7.84521C22.5764 8.90209 23.4332 9.75887 24.49 9.75887Z" fill="#FF8EB0"/>
</g>
<defs>
<clipPath id="clip0_513_58613">
<rect width="32" height="32" fill="white" transform="translate(0 0.400391)"/>
</clipPath>
</defs>
</svg>
