<svg width="32" height="33" viewBox="0 0 32 33" fill="none" xmlns="http://www.w3.org/2000/svg">
<g clip-path="url(#clip0_513_58615)">
<path d="M29.8546 8.36898C28.4238 5.91776 26.483 3.97696 24.0316 2.54624C21.5799 1.11557 18.9036 0.400391 16.0004 0.400391C13.0976 0.400391 10.4204 1.11557 7.9691 2.54624C5.51765 3.97675 3.57685 5.91753 2.14606 8.36898C0.715182 10.8206 0 13.4978 0 16.4004C0 19.3031 0.715401 21.9799 2.14583 24.4317C3.57657 26.8829 5.51737 28.8237 7.9688 30.2546C10.4204 31.6852 13.0974 32.4004 16.0001 32.4004C18.9029 32.4004 21.5803 31.6852 24.0316 30.2546C26.4828 28.8242 28.4236 26.8829 29.8542 24.4317C31.2848 21.9801 31.9998 19.303 31.9998 16.4004C32 13.4975 31.2848 10.8202 29.8546 8.36898ZM16.0002 2.73376C19.4444 2.73376 22.4516 3.87262 25.0208 6.15024L24.7605 6.51458C24.6564 6.66068 24.3959 6.9416 23.9794 7.35849C23.5628 7.775 23.1079 8.17108 22.6149 8.54601C22.1214 8.92107 21.4517 9.34809 20.6043 9.82729C19.757 10.3065 18.8542 10.7269 17.8958 11.0879C16.2987 8.1432 14.5905 5.49044 12.771 3.12948C13.8684 2.86562 14.9447 2.73376 16.0002 2.73376ZM5.29211 7.92073C6.62535 6.2405 8.2501 4.94864 10.167 4.04599C11.8891 6.33763 13.5834 8.96281 15.2502 11.921C11.028 13.0321 6.8198 13.5878 2.62533 13.5875C3.07001 11.4904 3.95886 9.6013 5.29211 7.92073ZM3.2501 21.3279C2.6389 19.7654 2.33337 18.1228 2.33337 16.4004C2.33337 16.2058 2.34053 16.06 2.35424 15.9629C7.38228 15.9629 12.056 15.3172 16.3754 14.0253C16.82 14.8863 17.188 15.6572 17.4797 16.3379C17.4234 16.3657 17.3338 16.3967 17.2087 16.4316C17.0833 16.4663 16.9933 16.4904 16.9372 16.5044L16.1666 16.7752C15.6386 16.9698 14.9474 17.3032 14.0936 17.7751C13.2395 18.2479 12.3333 18.81 11.3749 19.463C10.4165 20.1159 9.4269 20.9805 8.40619 22.0573C7.38533 23.1335 6.52772 24.2895 5.83324 25.5255C4.72213 24.2895 3.86116 22.8898 3.2501 21.3279ZM16.0002 30.0672C12.7501 30.0672 9.84736 29.0255 7.29172 26.9423L7.60425 27.1716C8.09029 26.1017 8.80547 25.074 9.75015 24.088C10.6947 23.1021 11.6043 22.3067 12.4793 21.7023C13.3543 21.0985 14.3056 20.5291 15.3336 19.9938C16.3613 19.4594 17.0623 19.1188 17.4377 18.9734C17.8128 18.8276 18.1115 18.7127 18.3335 18.6292L18.3751 18.6084H18.4171C19.7776 22.1778 20.7504 25.6363 21.3335 28.9835C19.6112 29.7062 17.8338 30.0671 16.0002 30.0672ZM27.5008 23.7858C26.4729 25.3764 25.1879 26.6927 23.6468 27.7339C23.0768 24.5396 22.1884 21.2822 20.9797 17.963C23.7436 17.5319 26.5838 17.7337 29.5006 18.5668C29.1948 20.4557 28.5282 22.1958 27.5008 23.7858ZM29.4585 16.2129C29.3196 16.1854 29.146 16.1538 28.9376 16.1193C28.7294 16.0848 28.4757 16.0429 28.1771 15.9943C27.8788 15.9457 27.5449 15.9007 27.1772 15.859C26.8091 15.8173 26.4167 15.7792 25.9996 15.7445C25.5831 15.7096 25.1387 15.6821 24.6667 15.661C24.194 15.6403 23.715 15.6298 23.2288 15.6298C22.7431 15.6298 22.2322 15.6439 21.6978 15.6715C21.1632 15.6988 20.646 15.748 20.1461 15.8174C20.1042 15.7478 20.0523 15.6332 19.9897 15.4734C19.9273 15.3138 19.8818 15.1921 19.8549 15.1087C19.5906 14.5254 19.285 13.8656 18.9374 13.1297C19.8958 12.7406 20.8092 12.2928 21.6779 11.7857C22.5456 11.2787 23.2395 10.8276 23.7607 10.4318C24.2816 10.0356 24.7746 9.61538 25.2398 9.17107C25.7052 8.72668 26.0069 8.41779 26.1463 8.24412C26.2853 8.07017 26.4172 7.90014 26.542 7.73369L26.563 7.71268C28.5908 10.1849 29.626 13.032 29.667 16.2545L29.4585 16.2129Z" fill="#FF8EB0"/>
</g>
<defs>
<clipPath id="clip0_513_58615">
<rect width="32" height="32" fill="white" transform="translate(0 0.400391)"/>
</clipPath>
</defs>
</svg>
