<svg width="32" height="33" viewBox="0 0 32 33" fill="none" xmlns="http://www.w3.org/2000/svg">
<path fill-rule="evenodd" clip-rule="evenodd" d="M14.6811 8.87918C15.2851 9.70888 15.588 10.7001 15.588 11.8564C15.588 13.0462 15.2851 14.0059 14.6736 14.7298C14.3312 15.1344 13.8288 15.5056 13.1647 15.8397C14.1731 16.2035 14.9333 16.7771 15.4507 17.5622C15.9624 18.3455 16.2202 19.2996 16.2202 20.4207C16.2202 21.5771 15.9267 22.6147 15.3378 23.5316C14.9652 24.1386 14.4986 24.6509 13.938 25.0667C13.3077 25.5437 12.5645 25.8685 11.7046 26.0467C10.8448 26.223 9.91536 26.3084 8.91066 26.3084H0V6.80029H9.556C11.9681 6.83556 13.6745 7.5279 14.6811 8.87918ZM3.94168 10.1877V14.4922H8.75073C9.6068 14.4922 10.3048 14.3307 10.8429 14.0077C11.3773 13.6847 11.6463 13.113 11.6463 12.2963C11.6463 11.385 11.2926 10.7854 10.5852 10.4922C9.9718 10.2898 9.19287 10.1877 8.24649 10.1877H3.94168ZM3.94168 22.9228V17.72H8.81093C9.6576 17.7274 10.318 17.8388 10.7884 18.0504C11.6294 18.4309 12.0471 19.1269 12.0471 20.1441C12.0471 21.3432 11.6143 22.1525 10.747 22.5794C10.271 22.8077 9.60115 22.9228 8.7432 22.9228H3.94168Z" fill="#FF8EB0"/>
<path d="M20.4479 10.1376H28.922V7.70981H20.4479V10.1376Z" fill="#FF8EB0"/>
<path fill-rule="evenodd" clip-rule="evenodd" d="M28.1751 12.1758C29.1967 12.625 30.0377 13.3377 30.7 14.3104C31.3039 15.1679 31.6915 16.1628 31.8684 17.2932C31.9719 17.954 32.0133 18.9117 31.9963 20.1572H21.3415C21.4055 21.6032 21.9097 22.6185 22.8731 23.1995C23.4563 23.5614 24.1581 23.7433 24.9822 23.7433C25.8496 23.7433 26.5589 23.5224 27.1026 23.0825C27.4018 22.8431 27.6652 22.5127 27.891 22.0895H31.795C31.6915 22.9433 31.2174 23.8138 30.3783 24.6974C29.0688 26.0988 27.2343 26.8004 24.8768 26.8004C22.9295 26.8004 21.2117 26.2101 19.7272 25.0259C18.2352 23.8435 17.4939 21.9169 17.4939 19.2514C17.4939 16.7512 18.1656 14.8338 19.5071 13.4992C20.8524 12.1684 22.5927 11.4983 24.7357 11.4983C26.0095 11.4983 27.1553 11.7247 28.1751 12.1758ZM22.4554 15.4352C21.9154 15.9846 21.5748 16.729 21.4356 17.6682H28.0264C27.9568 16.6658 27.6144 15.9085 27.0085 15.387C26.3952 14.8691 25.6407 14.6111 24.7376 14.6111C23.7592 14.6111 22.9954 14.8858 22.4554 15.4352Z" fill="#FF8EB0"/>
</svg>
