<svg width="32" height="33" viewBox="0 0 32 33" fill="none" xmlns="http://www.w3.org/2000/svg">
<path d="M32 5.22059C30.8017 5.77555 29.5307 6.13989 28.2293 6.3015C29.5828 5.45078 30.624 4.10637 31.114 2.50209C29.8253 3.30193 28.4154 3.86545 26.9452 4.1683C25.7044 2.78228 23.9691 1.9972 22.1538 2.0005C18.5296 2.0005 15.5882 5.07411 15.5882 8.86562C15.5882 9.40437 15.6462 9.92945 15.7597 10.4308C10.3027 10.1441 5.46637 7.41188 2.22771 3.25736C1.66221 4.27015 1.33965 5.45078 1.33965 6.70936C1.33965 9.09026 2.49821 11.1921 4.25943 12.4235C3.21667 12.3901 2.19679 12.0956 1.28534 11.5647V11.6522C1.28534 14.9778 3.54857 17.7529 6.55042 18.385C5.58363 18.6588 4.56996 18.6989 3.58613 18.5024C4.42193 21.2305 6.84726 23.2151 9.71886 23.2728C7.47237 25.1113 4.64201 26.211 1.56544 26.211C1.0423 26.2104 0.519621 26.1783 0 26.1149C2.90508 28.0624 6.35668 29.2005 10.0639 29.2005C22.1395 29.2005 28.7417 18.7365 28.7417 9.66211C28.7417 9.36529 28.7417 9.06848 28.7213 8.7738C30.006 7.80161 31.1154 6.59853 31.998 5.22059H32Z" fill="#FF8EB0"/>
</svg>
