<svg width="26" height="26" viewBox="0 0 26 26" fill="none" xmlns="http://www.w3.org/2000/svg">
<path d="M13.5077 20.5563L19.3227 24.2484C20.0726 24.7214 20.9956 24.0176 20.7764 23.1523L19.0919 16.5297C19.0464 16.3461 19.0536 16.1534 19.1128 15.9738C19.172 15.7942 19.2807 15.6349 19.4265 15.5144L24.6415 11.1647C25.3222 10.5994 24.9761 9.45717 24.0877 9.39948L17.2805 8.96105C17.0948 8.95024 16.9162 8.88557 16.7666 8.77492C16.6171 8.66428 16.503 8.51246 16.4383 8.33802L13.9 1.94619C13.8328 1.76147 13.7104 1.60191 13.5494 1.48916C13.3884 1.3764 13.1966 1.31592 13.0001 1.31592C12.8035 1.31592 12.6117 1.3764 12.4507 1.48916C12.2897 1.60191 12.1673 1.76147 12.1001 1.94619L9.56186 8.33802C9.49716 8.51246 9.38306 8.66428 9.23349 8.77492C9.08391 8.88557 8.90535 8.95024 8.71961 8.96105L1.91243 9.39948C1.02403 9.45717 0.677905 10.5994 1.35862 11.1647L6.57362 15.5144C6.71938 15.6349 6.82812 15.7942 6.88732 15.9738C6.94651 16.1534 6.95376 16.3461 6.90821 16.5297L5.35063 22.6677C5.08527 23.7061 6.19288 24.5483 7.08127 23.983L12.4924 20.5563C12.6441 20.4598 12.8202 20.4086 13.0001 20.4086C13.1799 20.4086 13.356 20.4598 13.5077 20.5563V20.5563Z" fill="#FF8EB0" stroke="#FF8EB0" stroke-width="2" stroke-linecap="round" stroke-linejoin="round"/>
</svg>
