<svg width="27" height="26" viewBox="0 0 27 26" fill="none" xmlns="http://www.w3.org/2000/svg">
<path d="M13.841 20.5563L19.656 24.2484C20.4059 24.7214 21.3289 24.0176 21.1097 23.1523L19.4252 16.5297C19.3797 16.3461 19.3869 16.1534 19.4461 15.9738C19.5053 15.7942 19.6141 15.6349 19.7598 15.5144L24.9748 11.1647C25.6555 10.5994 25.3094 9.45717 24.421 9.39948L17.6138 8.96105C17.4281 8.95024 17.2495 8.88557 17.0999 8.77492C16.9504 8.66428 16.8363 8.51246 16.7716 8.33802L14.2333 1.94619C14.1661 1.76147 14.0437 1.60191 13.8827 1.48916C13.7217 1.3764 13.5299 1.31592 13.3334 1.31592C13.1368 1.31592 12.945 1.3764 12.784 1.48916C12.623 1.60191 12.5006 1.76147 12.4334 1.94619L9.89517 8.33802C9.83048 8.51246 9.71637 8.66428 9.5668 8.77492C9.41722 8.88557 9.23866 8.95024 9.05292 8.96105L2.24574 9.39948C1.35735 9.45717 1.01122 10.5994 1.69194 11.1647L6.90693 15.5144C7.05269 15.6349 7.16143 15.7942 7.22063 15.9738C7.27983 16.1534 7.28707 16.3461 7.24152 16.5297L5.68395 22.6677C5.41858 23.7061 6.52619 24.5483 7.41459 23.983L12.8257 20.5563C12.9775 20.4598 13.1536 20.4086 13.3334 20.4086C13.5132 20.4086 13.6893 20.4598 13.841 20.5563V20.5563Z" fill="#FF8EB0" stroke="#FF8EB0" stroke-width="2" stroke-linecap="round" stroke-linejoin="round"/>
</svg>
