<svg width="27" height="26" viewBox="0 0 27 26" fill="none" xmlns="http://www.w3.org/2000/svg">
<path d="M14.1743 20.5563L19.9893 24.2484C20.7392 24.7214 21.6622 24.0176 21.443 23.1523L19.7585 16.5297C19.713 16.3461 19.7202 16.1534 19.7794 15.9738C19.8386 15.7942 19.9474 15.6349 20.0931 15.5144L25.3081 11.1647C25.9888 10.5994 25.6427 9.45717 24.7543 9.39948L17.9471 8.96105C17.7614 8.95024 17.5828 8.88557 17.4333 8.77492C17.2837 8.66428 17.1696 8.51246 17.1049 8.33802L14.5666 1.94619C14.4994 1.76147 14.377 1.60191 14.216 1.48916C14.055 1.3764 13.8632 1.31592 13.6667 1.31592C13.4701 1.31592 13.2783 1.3764 13.1173 1.48916C12.9563 1.60191 12.8339 1.76147 12.7668 1.94619L10.2285 8.33802C10.1638 8.51246 10.0497 8.66428 9.90011 8.77492C9.75054 8.88557 9.57197 8.95024 9.38624 8.96105L2.57905 9.39948C1.69066 9.45717 1.34453 10.5994 2.02525 11.1647L7.24024 15.5144C7.386 15.6349 7.49475 15.7942 7.55394 15.9738C7.61314 16.1534 7.62038 16.3461 7.57483 16.5297L6.01726 22.6677C5.75189 23.7061 6.8595 24.5483 7.7479 23.983L13.159 20.5563C13.3108 20.4598 13.4869 20.4086 13.6667 20.4086C13.8465 20.4086 14.0226 20.4598 14.1743 20.5563V20.5563Z" fill="#FF8EB0" stroke="#FF8EB0" stroke-width="2" stroke-linecap="round" stroke-linejoin="round"/>
</svg>
